<?xml version="1.0" encoding="utf-8"?>
<!-- Generator: Adobe Illustrator 24.2.3, SVG Export Plug-In . SVG Version: 6.00 Build 0)  -->
<svg version="1.1" id="Capa_1" xmlns="http://www.w3.org/2000/svg" xmlns:xlink="http://www.w3.org/1999/xlink" x="0px" y="0px"
	 viewBox="0 0 595.27557 58" style="enable-background:new 0 0 595.27557 58;" xml:space="preserve">
<g>
	<path d="M38.65789,12.84323l11.15763,32.11921h-2.46124l-8.69639-25.02262L29.9615,44.96244h-2.46124L38.65789,12.84323z"/>
	<path d="M76.75244,42.85277v2.10966H53.06128v-1.65039l20.28815-28.35541H53.31424v-2.1134h22.97672v1.65413L56.04383,42.85277
		H76.75244z"/>
	<path d="M112.96004,12.82904h2.14333v32.1334h-2.14333V12.82904z"/>
	<path d="M130.9801,14.94337h-10.58505v-2.11433h23.31343v2.11433h-10.58505v30.01906h-2.14333V14.94337z"/>
	<path d="M149.00015,12.82904h2.14333v32.1334h-2.14333V12.82904z"/>
	<path d="M170.12923,29.13434l-6.59407,7.3857v8.4424h-2.14334V12.84323h2.14334v20.64859l18.35504-20.64859h2.60483
		l-12.9369,14.59217l13.81885,17.52703h-2.60481L170.12923,29.13434z"/>
	<path d="M201.71516,12.84323h11.6362c3.05092,0,5.7617,0.69078,8.12723,2.06486c2.36723,1.37782,4.20804,3.28212,5.52412,5.7129
		s1.97412,5.19389,1.97412,8.28184c0,3.09169-0.65804,5.85106-1.97412,8.28184c-1.31609,2.43078-3.15689,4.33508-5.52412,5.7129
		c-2.36552,1.37782-5.07631,2.06486-8.12723,2.06486h-11.6362V12.84323z M213.18387,42.85277
		c2.71591,0,5.10878-0.58996,7.18204-1.76615c2.07155-1.17992,3.66794-2.82285,4.78917-4.93251
		c1.11952-2.1134,1.68015-4.52925,1.68015-7.25128s-0.56062-5.13788-1.68015-7.24754
		c-1.12123-2.1134-2.71762-3.75633-4.78917-4.93251c-2.07326-1.17992-4.46613-1.76614-7.18204-1.76614h-9.32538v27.89614H213.18387z
		"/>
	<path d="M251.05965,42.64477v2.31767h-17.2287V12.84323h17.2287v2.31767h-14.89052v27.48387H251.05965z"/>
	<path d="M264.76056,12.84323c1.58612,0,3.02869,0.38628,4.3277,1.15883c1.29898,0.77256,2.33817,1.81175,3.11755,3.11757
		s1.1691,2.75181,1.1691,4.33794v23.50486h-2.3382V21.45758c0-1.73654-0.61188-3.22013-1.83566-4.45075
		s-2.70395-1.84593-4.44049-1.84593s-3.21671,0.61531-4.44049,1.84593s-1.83566,2.7142-1.83566,4.45075v23.50486h-2.3382V21.45758
		c0-1.58613,0.38971-3.03211,1.1691-4.33794s1.81857-2.34502,3.11758-3.11757
		C261.73187,13.22951,263.17444,12.84323,264.76056,12.84323z"/>
	<path d="M288.34747,12.84323l11.15762,32.11921h-2.46124l-8.69638-25.02262l-8.69641,25.02262h-2.46124L288.34747,12.84323z"/>
	<path d="M323.82181,44.96244h-8.61435v-2.31767h8.61435c1.73654,0,3.21671-0.61531,4.44049-1.84593s1.83569-2.7142,1.83569-4.45074
		c0-0.99817-0.32132-1.86986-0.96399-2.61507s-1.48016-1.41863-2.51251-2.02027c-1.03235-0.60164-2.13651-1.1896-3.31244-1.76389
		c-2.35184-1.14858-4.13623-2.20828-5.35318-3.1791c-1.83228-1.50409-2.74841-3.26114-2.74841-5.27116
		c0-2.3245,0.84094-4.3687,2.5228-6.13259c1.76389-1.68185,3.7944-2.52277,6.09155-2.52277h1.1691v2.31767h-1.1691
		c-1.68182,0-3.16541,0.61531-4.45074,1.84593c-1.21695,1.28531-1.82541,2.7689-1.82541,4.45075
		c0,0.99817,0.32132,1.86986,0.96399,2.61507c0.64264,0.74521,1.48016,1.41863,2.51251,2.02027s2.13651,1.1896,3.31241,1.76389
		c2.35187,1.14858,4.13626,2.20828,5.35321,3.1791c1.83228,1.50409,2.74838,3.27482,2.74838,5.31218
		c0,1.58613-0.38968,3.03211-1.16907,4.33794c-0.77942,1.30582-1.8186,2.34502-3.11758,3.11757
		S325.40796,44.96244,323.82181,44.96244z"/>
	<path d="M342.93918,41.63922c-2.05786-2.35201-3.08682-5.79414-3.08682-10.32268v-18.4875h2.14163v18.3979
		c0,3.94614,0.82553,6.89548,2.47833,8.85175c1.6528,1.96,4.04736,2.93814,7.18375,2.93814
		c3.10733,0,5.48822-0.97813,7.14102-2.93814c1.65109-1.95627,2.47833-4.90561,2.47833-8.85175v-18.3979h2.14163v18.4875
		c0,4.52854-1.03577,7.97068-3.10904,10.32268c-2.07153,2.35574-4.97034,3.53174-8.69467,3.53174
		S344.99704,43.99496,342.93918,41.63922z"/>
	<path d="M378.45285,14.94211H367.8678v-2.11307h23.31342v2.11307h-10.58505v30.00112h-2.14331V14.94211z"/>
	<path d="M403.77798,12.84323l11.15765,32.11921h-2.46124l-8.69641-25.02262l-8.69638,25.02262h-2.46124L403.77798,12.84323z"/>
	<path d="M427.3649,12.84323c1.58612,0,3.02869,0.38628,4.3277,1.15883c1.29898,0.77256,2.33817,1.81175,3.11755,3.11757
		s1.1691,2.75181,1.1691,4.33794v23.50486h-2.3382V21.45758c0-1.73654-0.61188-3.22013-1.83566-4.45075
		s-2.70395-1.84593-4.44049-1.84593s-3.21671,0.61531-4.44049,1.84593s-1.83566,2.7142-1.83566,4.45075v23.50486h-2.3382V21.45758
		c0-1.58613,0.38971-3.03211,1.1691-4.33794s1.81857-2.34502,3.11755-3.11757
		C424.33621,13.22951,425.77878,12.84323,427.3649,12.84323z"/>
	<path d="M454.44199,12.84323h11.6362c3.0509,0,5.76169,0.69078,8.12723,2.06486c2.36722,1.37782,4.20804,3.28212,5.52411,5.7129
		c1.3161,2.43078,1.97412,5.19389,1.97412,8.28184c0,3.09169-0.65802,5.85106-1.97412,8.28184
		c-1.31607,2.43078-3.15689,4.33508-5.52411,5.7129c-2.36554,1.37782-5.07632,2.06486-8.12723,2.06486h-11.6362V12.84323z
		 M465.91068,42.85277c2.71591,0,5.1088-0.58996,7.18204-1.76615c2.07156-1.17992,3.66794-2.82285,4.78918-4.93251
		c1.11951-2.1134,1.68015-4.52925,1.68015-7.25128s-0.56064-5.13788-1.68015-7.24754
		c-1.12125-2.1134-2.71762-3.75633-4.78918-4.93251c-2.07324-1.17992-4.46613-1.76614-7.18204-1.76614h-9.32538v27.89614H465.91068z
		"/>
	<path d="M496.44376,12.84323l11.15762,32.11921h-2.46124l-8.69638-25.02262l-8.69638,25.02262h-2.46124L496.44376,12.84323z"/>
	<path d="M520.03064,44.96244h-8.61432v-2.31767h8.61432c1.73657,0,3.21674-0.61531,4.44049-1.84593
		c1.22382-1.23062,1.83569-2.7142,1.83569-4.45074s-0.61188-3.21671-1.83569-4.44049
		c-1.22375-1.22378-2.70392-1.83568-4.44049-1.83568v-2.33818c1.73657,0,3.21674-0.61189,4.44049-1.83568
		c1.22382-1.22378,1.83569-2.70395,1.83569-4.44049c0-1.73654-0.61188-3.22013-1.83569-4.45075
		c-1.22375-1.23062-2.70392-1.84593-4.44049-1.84593h-8.61432v-2.31767h8.61432c1.58612,0,3.02869,0.38628,4.3277,1.15883
		s2.3382,1.81175,3.11755,3.11757c0.77942,1.30583,1.16913,2.75181,1.16913,4.33794c0,1.58613-0.38971,3.03211-1.16913,4.33794
		c-0.77936,1.30583-1.81854,2.3416-3.11755,3.10732c1.29901,0.76572,2.3382,1.80149,3.11755,3.10732
		c0.77942,1.30583,1.16913,2.75181,1.16913,4.33794s-0.38971,3.03211-1.16913,4.33794
		c-0.77936,1.30582-1.81854,2.34502-3.11755,3.11757S521.61676,44.96244,520.03064,44.96244z"/>
	<path d="M536.31244,12.84323h2.14337v32.11921h-2.14337V12.84323z"/>
	<path d="M548.7041,12.84323h2.14337v30.00954h16.92786v2.10966H548.7041V12.84323z"/>
	<g>
		<path d="M94.5409,12.9404c2.06119,0,3.9358,0.38628,5.62384,1.15884c1.68804,0.77256,3.03848,1.81175,4.0513,3.11757
			s1.51923,2.7518,1.51923,4.33794s-0.50641,3.0287-1.51923,4.32768s-2.36326,2.33818-4.0513,3.11757
			s-3.56265,1.16909-5.62384,1.16909h-8.15591V45.0596h-3.03848V27.83091H94.5409c2.25665,0,4.18012-0.61189,5.77043-1.83568
			c1.59032-1.22378,2.38547-2.70395,2.38547-4.44049c0-1.73654-0.79515-3.22013-2.38547-4.45074
			c-1.59031-1.23062-3.51379-1.84593-5.77043-1.84593H83.34652V12.9404H94.5409z"/>
	</g>
</g>
</svg>
