<?xml version="1.0" encoding="utf-8"?>
<!-- Generator: Adobe Illustrator 24.2.3, SVG Export Plug-In . SVG Version: 6.00 Build 0)  -->
<svg version="1.1" id="Capa_1" xmlns="http://www.w3.org/2000/svg" xmlns:xlink="http://www.w3.org/1999/xlink" x="0px" y="0px"
	 viewBox="0 0 534.84851 669.69696" style="enable-background:new 0 0 534.84851 669.69696;" xml:space="preserve">
<g>
	<g id="Harri_Poltsak">
		<g>
			<g>
				<g>
					<g>
						<path d="M468.66895,411.99481h45.9787V652.7287h-45.9787V411.99481z"/>
					</g>
				</g>
			</g>
			<path d="M179.54922,652.51868L18.52605,503.42697v-28.88815h96.17229c12.27354,0,22.43995-3.76395,31.08263-11.50806
				c8.64023-7.74631,12.84218-16.85941,12.84218-27.85892c0-11.01382-4.21181-20.16336-12.87418-27.97476
				c-8.63776-7.78271-18.79433-11.5665-31.05064-11.5665H18.52605V348.9751h96.17229c17.60537,0,33.90363,3.92831,48.44431,11.67462
				c14.34621,7.65033,25.98219,18.0762,34.58795,30.99188c8.71899,13.09769,13.13757,27.74197,13.13757,43.53024
				c0,15.80261-4.42596,30.42596-13.15234,43.46628c-8.59099,12.83072-20.20482,23.24005-34.52148,30.9389
				c-14.54561,7.82245-30.86356,11.78937-48.49601,11.78937h-4.22903l106.69071,98.6756L179.54922,652.51868z"/>
			<path d="M399.27737,652.51868L238.25421,503.42697v-28.88815h96.1723c12.27353,0,22.43994-3.76395,31.08264-11.50806
				c8.6402-7.74631,12.84216-16.85941,12.84216-27.85892c0-11.01382-4.21179-20.16336-12.87418-27.97476
				c-8.63776-7.78271-18.79431-11.5665-31.05063-11.5665h-96.1723V348.9751h96.1723c17.60538,0,33.90363,3.92831,48.44431,11.67462
				c14.34622,7.65033,25.98221,18.0762,34.58795,30.99188c8.71899,13.09769,13.13757,27.74197,13.13757,43.53024
				c0,15.80261-4.42596,30.42596-13.15234,43.46628c-8.59097,12.83072-20.2048,23.24005-34.52148,30.9389
				c-14.54559,7.82245-30.86356,11.78937-48.496,11.78937h-4.22903l106.6907,98.6756L399.27737,652.51868z"/>
		</g>
		<g>
			<g>
				<g>
					<path d="M514.64764,320.81812H454.8595l-27.33139-54.24158l-65.33862-130.17996l-65.33862,130.17996l-27.33136,54.24158
						h-59.78818l27.33138-54.24158L362.18948,17.06451l125.1268,249.51202L514.64764,320.81812z"/>
				</g>
			</g>
			<path d="M246.43193,16.96827v303.84985h-47.63322V190.5954H66.15928v130.22272H18.52605V16.96827h47.63323v125.446h132.63943
				v-125.446H246.43193z"/>
		</g>
	</g>
	<g id="Borobil_x5F_full_4_">
		<g>
			<path d="M495.4007,398.62189c-0.03589,0-0.07175,0-0.10764,0c-0.00443-0.01059-0.00885-0.02121-0.01596-0.03821
				c-0.94659,0-1.89584,0-2.83875,0c-0.01477-0.01501-0.02322-0.02362-0.03629-0.03687
				c-0.03525,0.01135-0.0769-0.01047-0.11575,0.01248c-0.00845,0.00864-0.01691,0.01721-0.02521,0.02567
				c-0.01288-0.01215-0.02573-0.02429-0.03912-0.03693c-0.66949,0-1.33908,0-2.00778,0
				c-0.00937-0.00955-0.01782-0.01813-0.03262-0.03317c-0.29688,0-0.60022,0-0.89716,0
				c-0.0148-0.01505-0.02325-0.02362-0.03806-0.03867c-0.16531,0-0.3371,0-0.50241,0
				c-0.0148-0.01505-0.02325-0.02362-0.03806-0.03867c-0.08163,0-0.16977,0-0.25119,0
				c-0.0148-0.01505-0.02328-0.02365-0.03391-0.03442c-0.14105,0-0.2843,0.00009-0.42755-0.00046
				c-0.00455-0.00003-0.00906-0.00668-0.01358-0.01025c-0.00848-0.00858-0.01694-0.01718-0.02539-0.02579
				c-0.08374,0.00003-0.16745,0.00003-0.25052,0.00003c-0.01328-0.0126-0.02618-0.02484-0.03964-0.0376
				c-0.10736,0-0.21472,0-0.32098,0c-0.00955-0.00967-0.01801-0.01828-0.03278-0.03333c-0.08145,0-0.16962,0-0.25125,0
				c-0.01477-0.01505-0.02322-0.02362-0.03802-0.03867c-0.08154,0-0.16971,0-0.25122,0
				c-0.0148-0.01505-0.02325-0.02362-0.03806-0.03867c-0.0936,0-0.1937,0-0.28708,0c-0.0148-0.01505-0.02325-0.02365-0.03809-0.0387
				c-0.0578,0-0.12198,0-0.18073,0c-0.0137-0.01474-0.02188-0.02356-0.02975-0.03204c-0.07251,0-0.14426,0-0.215,0
				c-0.01355-0.0127-0.02649-0.02484-0.04007-0.03757c-0.0834,0-0.16678,0-0.2489,0
				c-0.0097-0.00986-0.01819-0.01846-0.03296-0.03351c-0.08145,0-0.16962,0-0.25122,0
				c-0.0148-0.01505-0.02325-0.02362-0.03806-0.03867c-0.04575,0-0.09781,0-0.14355,0
				c-0.0148-0.01505-0.02325-0.02365-0.03183-0.03235c-0.07547-0.01169-0.15268,0.00592-0.22421-0.00903
				c-0.01215-0.01233-0.0206-0.02094-0.03052-0.03104c-0.0701,0-0.14166,0.00021-0.21323-0.00049
				c-0.00449-0.00003-0.00888-0.00711-0.02072-0.01724c-0.00146-0.00168-0.00937-0.01071-0.01669-0.01907
				c-0.06128,0-0.12097,0-0.17941,0c-0.01385-0.01285-0.02682-0.02487-0.04053-0.03757c-0.05945,0-0.11884,0-0.17499,0
				c-0.01578-0.0137-0.02896-0.02512-0.04333-0.0376c-0.04727,0-0.09439,0-0.13901,0
				c-0.01099-0.01114-0.01944-0.01974-0.03424-0.03479c-0.06958,0-0.14581,0-0.21533,0
				c-0.0148-0.01501-0.02325-0.02362-0.03171-0.03223c-0.02829-0.00275-0.05661-0.00546-0.07932-0.00766
				c-0.01361-0.01382-0.02206-0.0224-0.03107-0.03159c-0.07108,0-0.14267,0-0.21371,0
				c-0.01358-0.0127-0.02655-0.02487-0.0401-0.03757c-0.04715,0-0.09485,0-0.14096,0
				c-0.01416-0.01297-0.02716-0.0249-0.04095-0.03757c-0.07138,0-0.1427,0-0.2124,0
				c-0.01007-0.01022-0.01852-0.01883-0.03333-0.03387c-0.03378,0-0.07388,0-0.10355,0
				c-0.02295-0.01837-0.03635-0.02911-0.05151-0.04126c-0.07095,0-0.14178,0-0.20856,0
				c-0.01224-0.01245-0.02069-0.02103-0.03207-0.03262c-0.05646,0-0.11588,0.00021-0.17526-0.00043
				c-0.00467-0.00006-0.00928-0.00616-0.01392-0.00946c-0.00845-0.00861-0.01691-0.01721-0.02539-0.02579
				c-0.05215-0.00336-0.1051,0.00354-0.14459-0.00208c-0.02023-0.01901-0.02887-0.02713-0.03821-0.03589
				c-0.07095,0-0.14255,0-0.21222,0c-0.01443-0.01312-0.0275-0.02493-0.04141-0.03757c-0.04739,0-0.09473,0-0.14029,0
				c-0.01025-0.01041-0.01871-0.01901-0.03351-0.03406c-0.05768,0-0.12173,0-0.17944,0
				c-0.0148-0.01505-0.02325-0.02362-0.03412-0.03467c-0.03763-0.0018-0.07788-0.00375-0.11301-0.00543
				c-0.0134-0.01361-0.02185-0.02222-0.03662-0.03726c-0.04584,0-0.09802,0-0.14359,0
				c-0.0148-0.01501-0.02325-0.02362-0.03189-0.03241c-0.05957,0-0.11932,0-0.17856,0
				c-0.01328-0.0126-0.02618-0.02484-0.03964-0.0376c-0.05942,0-0.11896,0-0.17764,0
				c-0.00934-0.00949-0.01733-0.01862-0.02634-0.02658c-0.02808-0.02478-0.0708,0.00919-0.09732-0.0257
				c-0.02682-0.03525-0.06741-0.02319-0.09915-0.01801c-0.07922,0.013-0.14056-0.04584-0.21521-0.04776
				c-0.00867-0.00021-0.01694-0.01605-0.02652-0.02579c-0.03445,0-0.07004,0-0.10562,0
				c-0.01346-0.01276-0.0264-0.02496-0.0397-0.03757c-0.03516,0-0.07104,0-0.10626,0
				c-0.01328-0.0126-0.02618-0.02484-0.03961-0.03757c-0.03561,0-0.0712,0-0.10571,0
				c-0.00952-0.00967-0.01797-0.01828-0.03278-0.03333c-0.04568,0-0.09778,0-0.14008,0
				c-0.02231-0.01849-0.03561-0.02951-0.05048-0.04184c-0.0351,0-0.07007,0-0.09802,0
				c-0.01953-0.01511-0.03302-0.02557-0.04285-0.03317c-0.03574,0-0.06564,0-0.0979,0
				c-0.01175-0.01053-0.02484-0.02222-0.0397-0.03552c-0.02136,0-0.04501,0-0.0686,0
				c-0.01343-0.0127-0.02634-0.02496-0.03961-0.03757c-0.02332,0-0.04721,0-0.07016,0
				c-0.01352-0.0127-0.02646-0.02484-0.04001-0.03757c-0.03555,0-0.07108,0-0.10376,0
				c-0.01541-0.01352-0.02853-0.02505-0.03757-0.03296c-0.04062-0.00253-0.08612,0.00827-0.10855-0.01007
				c-0.03217-0.02631-0.06659-0.01837-0.09604-0.03134c-0.03683-0.0162-0.06802-0.03964-0.11206-0.03568
				c-0.01236,0.00113-0.02673-0.02072-0.04227-0.03378c-0.03284,0-0.06851,0-0.10361,0
				c-0.01364-0.01285-0.02658-0.02502-0.03992-0.03757c-0.02344,0-0.04727,0-0.06989,0
				c-0.01379-0.01285-0.02679-0.02487-0.03946-0.03665c-0.0535,0.02328-0.08615-0.0361-0.12958-0.03384
				c-0.05505,0.00287-0.08926-0.06204-0.14673-0.03857c-0.03882-0.02261-0.07767-0.04526-0.12415-0.07236
				c-0.02588,0-0.06158,0-0.09674,0c-0.01358-0.01273-0.02655-0.0249-0.0401-0.03757c-0.02322,0-0.047,0-0.05789,0
				c-0.04013-0.021-0.07599-0.03046-0.09805-0.05356c-0.03073-0.03217-0.06891-0.0065-0.09851-0.02454
				c-0.03366-0.02051-0.06519-0.05759-0.09973-0.06036c-0.04031-0.00323-0.05707-0.05002-0.09088-0.04169
				c-0.04825,0.0119-0.07211-0.0314-0.11099-0.03894c-0.03796-0.00732-0.06522-0.05093-0.11087-0.03564
				c-0.065-0.04526-0.14883-0.04498-0.21362-0.09293c-0.03085-0.02283-0.06888-0.03571-0.10373-0.05292
				c-0.02487-0.0123-0.04886-0.03024-0.0751-0.03491c-0.02872-0.00513-0.05313-0.00677-0.0798-0.02701
				c-0.03433-0.02603-0.0856-0.02924-0.11945-0.05569c-0.03687-0.02878-0.08017-0.04019-0.11853-0.06357
				c-0.03815-0.02325-0.07718-0.05432-0.12796-0.03766c-0.03491-0.04114-0.09-0.04498-0.13144-0.07339
				c-0.03302-0.02261-0.06323-0.04947-0.08603-0.06757c-0.03323-0.0058-0.05984-0.00354-0.0773-0.01532
				c-0.01981-0.01337-0.0376-0.02191-0.06085-0.02859c-0.02509-0.0072-0.04016-0.04367-0.07541-0.03424
				c-0.05142-0.03571-0.1019-0.07471-0.15472-0.1059c-0.05118-0.03021-0.10339-0.06683-0.16568-0.07703
				c-0.0097-0.00159-0.01923-0.01401-0.02585-0.02356c-0.03152-0.04541-0.08469-0.05966-0.12854-0.08197
				c-0.05884-0.02994-0.11591-0.0665-0.18024-0.08542c-0.02899-0.04803-0.08417-0.05862-0.12491-0.08997
				c-0.04065-0.03131-0.08249-0.06107-0.12463-0.09033c-0.03241-0.02249-0.07388-0.0368-0.09717-0.06628
				c-0.02826-0.0358-0.07437-0.02933-0.10254-0.06177c-0.01746-0.02011-0.05457-0.01031-0.07379-0.039
				c-0.01236-0.01843-0.03403-0.04022-0.05319-0.04199c-0.03574-0.00333-0.05441-0.0275-0.06888-0.05005
				c-0.01978-0.03073-0.05707-0.01404-0.07529-0.03781c-0.06207-0.08084-0.16483-0.11203-0.22656-0.19312
				c-0.01843-0.02423-0.05563-0.00662-0.07523-0.03784c-0.01886-0.03003-0.04562-0.06732-0.07553-0.0751
				c-0.05716-0.01483-0.08365-0.06131-0.1243-0.09286c-0.04053-0.0314-0.09555-0.04376-0.12378-0.09113
				c-0.0231-0.03876-0.07227-0.03287-0.09406-0.05951c-0.00565-0.0224-0.0098-0.03879-0.01331-0.0528
				c-0.02148-0.00488-0.03781-0.00861-0.05142-0.01172c-0.05728-0.05823-0.11227-0.11411-0.16724-0.16995
				c-0.05499-0.05588-0.10257-0.12402-0.16702-0.16418c-0.06604-0.04117-0.11966-0.09198-0.17325-0.14539
				c-0.05551-0.0553-0.10974-0.11197-0.16519-0.16736c-0.03799-0.03796-0.07126-0.09033-0.11722-0.10809
				c-0.05493-0.02124-0.08002-0.06573-0.11368-0.0939c-0.00681-0.02271-0.01166-0.03885-0.01608-0.0535
				c-0.01611-0.00101-0.02777-0.00174-0.03967-0.0025c-0.01828-0.04193-0.0369-0.08383-0.07773-0.10934
				c-0.01163-0.00076-0.02328-0.0015-0.03494-0.00223c-0.0296-0.03009-0.05923-0.06018-0.08884-0.09024
				c-0.02536-0.02579-0.05334-0.0495-0.07541-0.07791c-0.02423-0.03119-0.03888-0.07059-0.065-0.09961
				c-0.05643-0.06271-0.11755-0.12109-0.17676-0.18127c-0.0592-0.06015-0.11841-0.12033-0.17764-0.18048
				c-0.01535-0.09192-0.1062-0.12305-0.14993-0.19336c-0.0007-0.01065-0.0015-0.02246-0.00244-0.03674
				c-0.05826-0.05841-0.11783-0.11813-0.17722-0.17767c0-0.0127,0-0.02475,0-0.03345
				c-0.02499-0.02896-0.06348-0.05347-0.06808-0.08337c-0.00778-0.05054-0.04718-0.06693-0.07242-0.09775
				c-0.02271-0.02774-0.05112-0.05069-0.07605-0.07486c0.00754-0.03055-0.00449-0.04953-0.02472-0.06537
				c-0.06613-0.05173-0.09842-0.12555-0.12714-0.20248c-0.04407-0.0029-0.08786-0.02899-0.09378-0.065
				c-0.00711-0.04306-0.03534-0.05981-0.05621-0.0867c-0.01791-0.02307-0.04901-0.0433-0.05295-0.06827
				c-0.00781-0.04965-0.06561-0.06174-0.07037-0.09769c-0.00659-0.05011-0.04257-0.06891-0.06696-0.10037
				c-0.01434-0.01849-0.03299-0.03433-0.04395-0.0546c-0.0213-0.03931-0.02899-0.09262-0.05984-0.11865
				c-0.03958-0.03339-0.05075-0.0788-0.07098-0.11819c-0.02179-0.04239-0.05054-0.0762-0.07712-0.11365
				c-0.02515-0.03549-0.02856-0.08713-0.05441-0.12173c-0.02768-0.03705-0.052-0.07501-0.07703-0.11343
				c-0.02481-0.03809-0.04645-0.08301-0.07617-0.11276c-0.04678-0.04684-0.06192-0.11108-0.10849-0.15833
				c-0.04117-0.04172-0.04437-0.116-0.09174-0.16019c-0.04767-0.04446-0.05048-0.11349-0.08801-0.16382
				c-0.01294-0.01733-0.01346-0.04459-0.0271-0.06085c-0.01889-0.02252-0.04483-0.039-0.06085-0.05231
				c0-0.03821,0-0.06207,0-0.08353c-0.02383-0.03577-0.07526-0.04819-0.07022-0.10117
				c-0.04758-0.06378-0.0712-0.14026-0.10754-0.20999s-0.07315-0.13928-0.10742-0.21008
				c-0.0343-0.07086-0.07529-0.13968-0.1041-0.21136c-0.02899-0.07211-0.08798-0.1351-0.08099-0.22015
				c-0.02188-0.02222-0.04303-0.04373-0.06174-0.06271c-0.00534-0.03131-0.0033-0.06378-0.01645-0.08755
				c-0.0354-0.06409-0.06256-0.13205-0.0965-0.19656c-0.03421-0.06503-0.0741-0.12714-0.0798-0.20349
				c-0.03674-0.01755-0.02109-0.06378-0.04929-0.08966c-0.0235-0.02155-0.01849-0.06625-0.04977-0.08743
				c0.01328-0.04581-0.04898-0.06256-0.03903-0.11316c0.00549-0.02789-0.01935-0.0629-0.03326-0.09341
				c-0.00931-0.02051-0.03162-0.03796-0.03357-0.05826c-0.00354-0.03632,0.0004-0.07248-0.03613-0.09476
				c0.01892-0.04816-0.0574-0.06281-0.03766-0.11197c0.01675-0.04184-0.0332-0.05692-0.03793-0.0939
				c-0.00479-0.03784-0.03473-0.06778-0.03751-0.11258c-0.0022-0.03561-0.03214-0.0687-0.03583-0.11243
				c-0.00235-0.02792-0.02222-0.07083-0.04358-0.08783c-0.04242-0.03378-0.00906-0.08109-0.03525-0.11496
				c-0.04147-0.05365-0.0528-0.12503-0.09677-0.17783c0.01224-0.08191-0.05945-0.13342-0.07303-0.2066
				c-0.00385-0.02081-0.03546-0.04129-0.03235-0.05759c0.01105-0.05801-0.04111-0.09299-0.04257-0.14935
				c-0.00119-0.04581-0.04718-0.08926-0.06451-0.1351c-0.02573-0.06793-0.08597-0.12415-0.07465-0.20572
				c-0.03784-0.02896-0.04059-0.06952-0.03589-0.11252c-0.04333-0.02609-0.03354-0.08624-0.07178-0.11563
				c-0.01199-0.07324-0.08368-0.12503-0.07175-0.20682c-0.05115-0.02866-0.01825-0.09335-0.04846-0.12421
				c-0.02393-0.02441-0.0116-0.05963-0.03619-0.07687c-0.03793-0.02652-0.00623-0.0777-0.02725-0.09671
				c-0.0379-0.03433-0.01642-0.08426-0.0386-0.11182c-0.02609-0.03244-0.01944-0.06665-0.03152-0.09726
				c-0.0148-0.03745-0.03955-0.06885-0.03516-0.1138c0.00122-0.01251-0.02008-0.02731-0.03305-0.04361
				c0-0.02063,0-0.04468,0-0.06866c-0.01254-0.01364-0.02457-0.02673-0.03699-0.04025c0-0.02365,0-0.04794,0-0.07132
				c-0.01245-0.0137-0.02444-0.02682-0.03696-0.04059c0-0.03613,0-0.07227,0-0.1055
				c-0.01331-0.01562-0.02466-0.02896-0.03699-0.04346c0-0.03595,0-0.07172,0-0.10645
				c-0.06458-0.05789-0.05469-0.15027-0.10458-0.22162c0-0.01608,0-0.04016,0-0.06375
				c-0.0126-0.01382-0.02463-0.02698-0.03696-0.04047c0-0.03601,0-0.07239,0-0.10757
				c-0.0126-0.01398-0.02448-0.02716-0.03699-0.04105c0-0.0361,0-0.07217,0-0.10501
				c-0.01343-0.01593-0.02469-0.02933-0.03986-0.04733c0.0405-0.07312-0.04202-0.12726-0.03271-0.20062
				c0.00211-0.01666-0.02353-0.03696-0.03641-0.0556c-0.008-0.03641,0.01495-0.07394-0.0061-0.10693
				c-0.00894-0.00906-0.0174-0.01767-0.02646-0.02689c0-0.03568,0-0.07196,0-0.10767
				c-0.01254-0.01382-0.02454-0.02701-0.03699-0.04071c0-0.03583,0-0.07214,0-0.10693
				c-0.01273-0.01431-0.02451-0.02753-0.03696-0.04153c0-0.04819,0-0.09637,0-0.14294
				c-0.01004-0.01019-0.01849-0.0188-0.03329-0.03384c0-0.0343,0-0.07507,0-0.10526c-0.0181-0.02325-0.02869-0.0369-0.04065-0.05228
				c0-0.04773,0-0.09534,0-0.13907c-0.01221-0.01239-0.02066-0.02097-0.02911-0.02957
				c-0.00906-0.07693,0.00381-0.15515-0.0065-0.22537c-0.01465-0.01489-0.02313-0.0235-0.03201-0.03253
				c0-0.06021,0-0.12088,0-0.18106c-0.01239-0.01367-0.02435-0.02686-0.03696-0.04071c0-0.03564,0-0.07193,0-0.10635
				c-0.01288-0.01459-0.02454-0.02786-0.03699-0.04196c0-0.06033,0-0.12061,0-0.17911
				c-0.01019-0.01038-0.01865-0.01895-0.03345-0.034c0-0.03433,0-0.0751,0-0.10504c-0.01807-0.0235-0.02856-0.03714-0.0405-0.05264
				c0-0.08423,0-0.1683,0-0.24814c-0.01236-0.01257-0.02081-0.02118-0.03561-0.03619c0-0.0466,0-0.09973,0-0.14587
				c-0.0148-0.01505-0.02328-0.02365-0.03198-0.03247c0-0.07263,0-0.14548,0-0.2179
				c-0.01236-0.01349-0.02441-0.02661-0.03696-0.04031c0-0.06027,0-0.12082,0-0.17917
				c-0.013-0.01492-0.0246-0.02823-0.03699-0.04245c0-0.0603,0-0.12054,0-0.1788c-0.01038-0.01053-0.01883-0.01913-0.03363-0.03418
				c0-0.07071,0-0.14807,0-0.2142c-0.01804-0.02371-0.02844-0.03738-0.0321-0.04224c0-0.04623,0-0.08154,0-0.1127
				c0.01254-0.01276,0.021-0.02136,0.03046-0.03094c-0.01129-0.01266-0.02264-0.02539-0.03448-0.0387c0-0.08405,0-0.16913,0-0.25336
				c-0.0119-0.01324-0.02335-0.026-0.03476-0.03873c0.00928-0.00943,0.01773-0.01804,0.03043-0.03094c0-0.06061,0-0.1257,0-0.19095
				c-0.00842-0.00854-0.01688-0.01715-0.02844-0.02893c0-0.03757,0-0.07834,0-0.11588
				c0.01166-0.01181,0.02011-0.02042,0.02844-0.0289c0-0.81882,0-1.63754,0-2.4519
				c-0.01273-0.01291-0.02118-0.02151-0.02966-0.03009c-0.00525-0.08936,0.00162-0.17929-0.00345-0.25958
				c-0.01752-0.0173-0.02609-0.02573-0.03448-0.03403c0-0.25565,0-0.51089,0-0.76172
				c-0.01556-0.02115-0.02893-0.03925-0.04343-0.05893c0.0173-0.02432,0.0304-0.04276,0.04868-0.06845
				c-0.00912-0.03107-0.01978-0.06738-0.03107-0.1058c0.00516-0.00525,0.01361-0.01385,0.02841-0.02887
				c0-0.26529,0-0.53708,0-0.80228c0.0148-0.01505,0.02325-0.02362,0.03336-0.03391c0-0.08316-0.00015-0.16803,0.00049-0.25287
				c0.00003-0.00458,0.00687-0.00906,0.01532-0.01947c0.00327-0.00305,0.01205-0.01123,0.02036-0.01895
				c0-0.09836,0-0.19553,0-0.29156c0.01257-0.01392,0.02444-0.02707,0.03696-0.04092c0-0.08475,0-0.16946,0-0.25278
				c0.0098-0.00995,0.01828-0.01855,0.03308-0.0336c0-0.07074,0-0.14804,0-0.21881c0.01477-0.01501,0.02325-0.02362,0.03806-0.03867
				c0-0.09503,0-0.19675,0-0.29172c0.0148-0.01505,0.02325-0.02365,0.03174-0.03223
				c0.01099-0.07684-0.00537-0.15524,0.00833-0.22733c0.01279-0.01297,0.02124-0.02158,0.03101-0.03149
				c0-0.0957-0.00015-0.19278,0.00049-0.28983c0.00003-0.00452,0.00708-0.00897,0.01089-0.01343
				c0.00821-0.0087,0.01636-0.01743,0.02493-0.02655c0-0.16968,0-0.33972,0-0.50836c0.0127-0.01419,0.02451-0.0274,0.03696-0.04135
				c0-0.09686,0-0.1937,0-0.28894c0.00998-0.01013,0.01843-0.01874,0.03323-0.03375c0-0.07074,0-0.14807,0-0.21881
				c0.0148-0.01505,0.02325-0.02362,0.03806-0.03867c0-0.168,0-0.34259,0-0.51053c0.0148-0.01505,0.02325-0.02365,0.03488-0.03543
				c0-0.15436-0.00009-0.31195,0.0004-0.46954c0-0.00473,0.00595-0.00946,0.00912-0.01422
				c0.00845-0.00858,0.01691-0.01718,0.02585-0.02628c0-0.12091,0-0.24234,0-0.36322
				c0.01248-0.01373,0.02444-0.02692,0.03699-0.04074c0-0.07214,0-0.1449,0-0.21594c0.01282-0.0145,0.02454-0.02774,0.03696-0.04181
				c0-0.07248,0-0.14496,0-0.2157c0.01016-0.01028,0.01862-0.01889,0.03342-0.03394c0-0.0343,0-0.07507,0-0.1051
				c0.01807-0.02341,0.02859-0.03705,0.04056-0.05252c0-0.05994,0-0.11975,0-0.17529
				c0.0123-0.01251,0.02075-0.02112,0.02921-0.02972c0.00812-0.06479-0.00348-0.13095,0.00647-0.18887
				c0.01468-0.01492,0.02313-0.02353,0.03192-0.03244c0-0.04822,0-0.09674,0-0.1449c0.01233-0.01352,0.02435-0.02667,0.03696-0.0405
				c0-0.04788,0-0.09628,0-0.14264c0.01297-0.0148,0.02457-0.02808,0.03699-0.04227c0-0.03598,0-0.07193,0-0.10599
				c0.01031-0.01047,0.01877-0.01907,0.03357-0.03412c0-0.05859,0-0.12369,0-0.18231
				c0.0148-0.01505,0.02325-0.02365,0.03391-0.03445c0.00183-0.03854,0.00381-0.07944,0.00552-0.11502
				c0.01343-0.01364,0.02188-0.02225,0.03036-0.03082c0.00195-0.04089,0.00388-0.08179,0.00543-0.11496
				c0.01569-0.01593,0.02417-0.02454,0.03275-0.03326c0-0.02414,0-0.0484,0-0.07208
				c0.01242-0.01352,0.02444-0.02661,0.03699-0.04025c0-0.06046,0-0.12097,0-0.17908
				c0.01309-0.01514,0.0246-0.02844,0.03696-0.04276c0-0.03595,0-0.07184,0-0.10318
				c0.01395-0.01724,0.02484-0.03073,0.03604-0.04459c-0.02002-0.08087,0.04089-0.14386,0.04324-0.2196
				c0.00027-0.00885,0.01581-0.01721,0.0253-0.02686c0-0.04727,0-0.09561,0-0.14322
				c0.04199-0.02835,0.03183-0.08875,0.07394-0.11691c0-0.03564,0-0.07178,0-0.10831
				c0.05841-0.02411,0.01434-0.09192,0.05219-0.12375c0.02197-0.01849,0.01721-0.04196,0.01874-0.06537
				c0.00183-0.02859-0.0108-0.06104,0.01904-0.08304c0.0351-0.02588,0.00098-0.07016,0.02545-0.09866
				c0.00784-0.00912,0.01682-0.01727,0.02612-0.02673c0-0.02319,0-0.04727,0-0.07114
				c0.01254-0.01367,0.0246-0.02679,0.03699-0.04028c0-0.02374,0-0.048,0-0.07117c0.01254-0.01385,0.02444-0.02704,0.03622-0.04004
				c-0.02756-0.06018,0.04202-0.09491,0.03644-0.14993c-0.00153-0.01501,0.00665-0.03516,0.01715-0.04648
				c0.02411-0.02597,0.02475-0.06229,0.04694-0.09119c0.02145-0.02795-0.00461-0.08362,0.04111-0.10919
				c0.00064-0.04135-0.00565-0.08511,0.03723-0.11197c-0.01547-0.04221,0.04593-0.05713,0.03485-0.09396
				c-0.01471-0.04895,0.03143-0.07217,0.03934-0.11237c0.00729-0.03699,0.02875-0.07605,0.05511-0.10294
				c0.02991-0.03052,0.03796-0.07532,0.06424-0.09988c0.0379-0.03546,0.01129-0.07861,0.03372-0.11551
				c0.04941-0.08124,0.09634-0.16608,0.12839-0.25534c0.01715-0.04779,0.06384-0.06415,0.07831-0.11346
				c0.01193-0.04074,0.04129-0.08145,0.05765-0.12122c0.01923-0.04675,0.04907-0.07809,0.08136-0.11368
				c0-0.02243,0-0.04639,0-0.06744c0.03442-0.05713,0.10678-0.08191,0.11298-0.15643
				c0.05185-0.04053,0.07535-0.10034,0.10361-0.15695c0.00751-0.01508,0.01337-0.03171,0.02368-0.04456
				c0.02161-0.02689,0.04611-0.047,0.05362-0.08777c0.00668-0.03632,0.06036-0.0488,0.06949-0.09839
				c0.00552-0.03,0.06052-0.05225,0.06317-0.08087c0.00534-0.05777,0.06641-0.07248,0.07437-0.11511
				c0.0116-0.06195,0.06995-0.07974,0.09268-0.12582c0.02087-0.04233,0.04413-0.07968,0.07654-0.11411
				c0.03134-0.03323,0.06747-0.06049,0.08804-0.10812c0.02014-0.0466,0.08386-0.07565,0.09872-0.12222
				c0.01431-0.04486,0.05338-0.0643,0.06573-0.10022c0.0163-0.04736,0.04221-0.08539,0.07947-0.11151
				c0.03787-0.02655,0.03113-0.07452,0.06186-0.10303c0.02496-0.02316,0.0452-0.04697,0.05557-0.08627
				c0.0094-0.03558,0.05649-0.05994,0.08408-0.0918c0.02597-0.03,0.02795-0.07434,0.06305-0.10168
				c0.03766-0.0293,0.07101-0.06549,0.10156-0.10266c0.02499-0.03036,0.03964-0.06961,0.06488-0.09967
				c0.06784-0.08078,0.15421-0.14331,0.20511-0.24185c0.02655-0.05136,0.07855-0.09155,0.12497-0.1293
				c0.05179-0.04211,0.06232-0.11389,0.1138-0.15295c0.06268-0.04749,0.08926-0.12247,0.13971-0.17838
				c0.05655-0.06262,0.11652-0.12228,0.17767-0.18033c0.02307-0.02191,0.02493-0.05161,0.03928-0.07465
				c0.01755-0.02817,0.04141-0.0607,0.09155-0.05142c0.03812-0.07117,0.11227-0.11176,0.15601-0.18744
				c0.04379-0.07578,0.11798-0.13367,0.17993-0.19833c0.05841-0.06094,0.11823-0.12048,0.17746-0.18066
				c0.13956-0.14182,0.27771-0.2851,0.41977-0.42429c0.03091-0.03033,0.03592-0.07187,0.06223-0.10208
				c0.01208,0,0.02405,0,0.04834,0c-0.00906-0.06949,0.05325-0.09464,0.08917-0.13962
				c0.06665-0.00568,0.09619-0.06351,0.13678-0.10376c0.1369-0.13586,0.27127-0.27441,0.40714-0.41248
				c0.01126,0,0.02307,0,0.04007,0c0.00455-0.01474,0.00626-0.03256,0.01483-0.04578
				c0.03702-0.05716,0.19006-0.20749,0.25308-0.24591c0.04556-0.02777,0.08374-0.06003,0.1055-0.11069
				c0.02148-0.05002,0.0578-0.08627,0.10706-0.1084c0.005-0.00226,0.01184-0.00031,0.01862-0.00031
				c0.02893-0.02988,0.05829-0.06015,0.08878-0.09161c0-0.01028,0-0.02225,0-0.04846
				c0.04471,0.01035,0.07071-0.02158,0.09879-0.05069c0.03348-0.03473,0.06757-0.06885,0.10141-0.10321
				c0.03381-0.03439,0.06766-0.06876,0.1015-0.10315c0.03381-0.03436,0.07138-0.06583,0.10046-0.10394
				c0.03027-0.03961,0.0813-0.04099,0.11359-0.07602c0.05722-0.06207,0.12262-0.11685,0.17578-0.1821
				c0.05719-0.07022,0.14285-0.09891,0.20422-0.16449c0.07565-0.08087,0.14212-0.1731,0.24832-0.22366
				c0.0611-0.02908,0.09296-0.09979,0.1608-0.13333c0.06094-0.03012,0.10739-0.09433,0.15451-0.14862
				c0.05133-0.05911,0.12048-0.08377,0.1868-0.11526c0.00662-0.02066,0.01321-0.04135,0.01901-0.05948
				c0.01895-0.00125,0.03061-0.00201,0.04227-0.00278c0.04651-0.04727,0.09302-0.09454,0.14041-0.1427
				c0.02283,0,0.04651,0,0.07715,0c0.04245-0.04486,0.08728-0.09354,0.13367-0.14059
				c0.01605-0.01627,0.03479-0.03812,0.05444-0.04074c0.04865-0.00641,0.05984-0.06689,0.09604-0.07153
				c0.04956-0.00635,0.06641-0.04541,0.09875-0.0683c0.03726-0.02637,0.05405-0.07584,0.11017-0.08334
				c0.03818-0.00513,0.04984-0.06699,0.09622-0.07007c0.05179-0.00345,0.05856-0.06851,0.11316-0.07742
				c0.03409-0.00555,0.06708-0.04727,0.09085-0.08002c0.02112-0.02905,0.05481-0.0162,0.07571-0.03732
				c0.02084-0.02106,0.04355-0.05811,0.0647-0.05759c0.06293,0.00156,0.06946-0.08633,0.13184-0.07623
				c0.03897-0.03647,0.07794-0.07291,0.11688-0.10938c0.06369,0.00034,0.08163-0.06284,0.12399-0.0921
				c0.00919-0.00635,0.01917-0.0116,0.02878-0.01733c0.01797,0.00003,0.03589,0.00003,0.06058,0.00003
				c0.02142-0.02194,0.0463-0.04745,0.0712-0.07294c0.04556,0.01169,0.06305-0.02777,0.08572-0.05249
				c0.0249-0.0271,0.06998-0.01395,0.08749-0.05075c0.02011-0.04224,0.07037-0.03528,0.10025-0.06345
				c0.0152-0.01434,0.04333-0.01407,0.05954-0.0278c0.0224-0.01901,0.03909-0.04501,0.05331-0.0621c0.03558,0,0.05914,0,0.08139,0
				c0.01822-0.01852,0.03418-0.0369,0.05231-0.05261c0.02191-0.01898,0.03513-0.04898,0.06396-0.05545
				c0.02097,0,0.03891,0,0.06625,0c0.02133-0.05557,0.0878-0.06079,0.12869-0.10037c0.04666-0.0452,0.10938-0.05777,0.15961-0.09204
				c0.0249-0.01697,0.05594-0.01709,0.07486-0.03687c0.03268-0.03424,0.06805-0.06058,0.11252-0.07742
				c0.04132-0.01562,0.08258-0.03439,0.11926-0.05893c0.05191-0.03473,0.11929-0.04733,0.15012-0.10733
				c0.03693-0.00513,0.0712,0.00684,0.1022-0.02469c0.0224-0.02277,0.06689-0.01819,0.08493-0.05325
				c0.01855-0.03601,0.06317-0.02472,0.08698-0.0513c0.02338-0.02609,0.06857-0.0155,0.08646-0.05173
				c0.03253,0.00266,0.05545-0.01367,0.07312-0.03882c0.02472,0,0.04861,0,0.07224,0
				c0.03339-0.02286,0.05157-0.05951,0.09464-0.07693c0.04221-0.01709,0.08221-0.03482,0.12741-0.03879
				c0.02133-0.02167,0.04248-0.04315,0.06464-0.06567c0.02261,0,0.04626,0,0.07455,0
				c0.02884-0.06265,0.10172-0.06747,0.15054-0.11273c0.03284,0,0.06812,0,0.06998,0
				c0.07074-0.01807,0.07764-0.0787,0.13113-0.07065c0.03-0.03384,0.06775-0.0433,0.11072-0.03647
				c0.01981-0.03348,0.06479-0.02655,0.08597-0.05106c0.02988-0.03458,0.06833-0.01062,0.09808-0.02551
				c0.035-0.01755,0.06421-0.0513,0.1004-0.06116c0.04343-0.01181,0.08698-0.01605,0.12646-0.04346
				c0.03143-0.02179,0.0773-0.02548,0.10321-0.05127c0.02698-0.02689,0.06567-0.01672,0.0903-0.04816
				c0.02484-0.03177,0.08487,0.01181,0.10822-0.03998c0.03519-0.0036,0.06082-0.02716,0.08987-0.04373
				c0.00455-0.00259,0.01184,0.00027,0.01773-0.00049c0.01697-0.00214,0.04315,0.00113,0.04913-0.00842
				c0.02155-0.03452,0.06766-0.01794,0.08902-0.05002c0.00528-0.00793,0.01941-0.00977,0.02948-0.0144
				c0.02994,0.00003,0.05984,0.00003,0.09003,0.00003c0.01831-0.03534,0.06583-0.02557,0.08536-0.05164
				c0.03323-0.04437,0.09778,0.00607,0.12567-0.04959c0.00446-0.00888,0.0321-0.00735,0.04913-0.00781
				c0.03497-0.00101,0.07224,0.00684,0.09482-0.03177c0.06616,0.01309,0.11343-0.0585,0.18164-0.0412
				c0.01248-0.0116,0.02545-0.02365,0.03925-0.03647c0.03461,0,0.0704,0,0.10583,0c0.01328-0.01254,0.02621-0.02475,0.03983-0.03757
				c0.02319,0,0.04691,0,0.05972,0c0.04767-0.02722,0.08661-0.0495,0.13223-0.07553
				c0.07385,0.03345,0.13266-0.04449,0.20819-0.04248c0.00824,0.00021,0.01691-0.01599,0.02536-0.02463
				c0.04022-0.00198,0.08047-0.00391,0.11307-0.00546c0.01572-0.01599,0.0242-0.0246,0.03278-0.03333c0.04767,0,0.09549,0,0.1427,0
				c0.01331-0.0126,0.02621-0.02484,0.03964-0.03757c0.02359,0,0.04724,0,0.06854,0
				c0.01489-0.01331,0.02798-0.02499,0.04208-0.03757c0.03537,0,0.07068,0,0.10394,0c0.0105-0.01068,0.01898-0.01926,0.03378-0.0343
				c0.04572,0,0.09781,0,0.13889,0c0.02347-0.01831,0.03696-0.02881,0.0524-0.04083c0.03488,0,0.06958,0,0.1001,0
				c0.01266-0.01288,0.02112-0.02148,0.03592-0.03653c0.05786,0,0.12207,0,0.17987,0c0.01443-0.01495,0.0228-0.02362,0.0311-0.03217
				c0.0361,0,0.07199,0,0.10709,0c0.01337-0.01263,0.02628-0.02484,0.03976-0.03757c0.04755,0,0.09506,0,0.14148,0
				c0.00958-0.00977,0.01804-0.01837,0.03284-0.03339c0.04568,0,0.09778,0,0.14355,0c0.0148-0.01505,0.02325-0.02365,0.03806-0.0387
				c0.04575,0,0.09781,0,0.14355,0c0.0148-0.01505,0.02325-0.02362,0.03806-0.03867c0.05777,0,0.12186,0,0.17944,0
				c0.0148-0.01505,0.02325-0.02362,0.03806-0.03867c0.0578,0,0.12201,0,0.18115,0c0.01337-0.01468,0.02145-0.02356,0.02914-0.03201
				c0.06079,0,0.12051,0,0.1792,0c0.01364-0.01276,0.02661-0.02484,0.04022-0.03757c0.04749,0,0.09497,0,0.14114,0
				c0.00977-0.00992,0.01822-0.01852,0.03302-0.03357c0.06961,0,0.14569,0,0.21533,0
				c0.0148-0.01505,0.02325-0.02362,0.03806-0.03867c0.06961,0,0.14572,0,0.2153,0c0.0148-0.01505,0.02328-0.02362,0.03174-0.03226
				c0.07559-0.01135,0.15277,0.00558,0.22388-0.00867c0.01257-0.01279,0.02103-0.02139,0.03085-0.03137
				c0.09415,0,0.18964,0.00015,0.28516-0.00049c0.00446-0.00003,0.00885-0.00717,0.01324-0.01102
				c0.00854-0.00836,0.01712-0.01666,0.02606-0.02536c0.09525,0,0.19083,0,0.28503,0
				c0.01395-0.01288,0.02695-0.0249,0.04065-0.03757c0.1312,0,0.26239,0,0.39206,0c0.00992-0.0101,0.0184-0.01871,0.03061-0.03113
				c0.2995,0,0.60278,0,0.90469,0c0.00983,0.00998,0.01831,0.01859,0.03308,0.03363c0.29694,0,0.60028,0,0.89716,0
				c0.0148,0.01501,0.02325,0.02362,0.03494,0.03546c0.39108,0,0.78537-0.00003,1.17969,0.0004
				c0.00467,0.00003,0.00934,0.00601,0.01401,0.00922c0.00845,0.00861,0.01691,0.01721,0.02591,0.02634
				c0.34622,0,0.69296,0,1.03915,0c0.01355,0.0127,0.02652,0.02484,0.03891,0.03644c0.06027,0,0.11993,0,0.17795,0
				c0.01419-0.013,0.02722-0.02493,0.03741-0.03424c0.05106,0,0.09845,0,0.14218,0c0.01614,0.01382,0.02936,0.02515,0.03741,0.03201
				c0.04169,0,0.07681,0,0.10648,0c0.01642-0.01285,0.02805-0.02197,0.039-0.03055c0.013,0.01321,0.02145,0.02182,0.03278,0.03333
				c0.14026,0,0.28342-0.00009,0.42657,0.00043c0.00464,0.00003,0.00925,0.00623,0.01389,0.00952
				c0.00845,0.00861,0.01691,0.01721,0.02573,0.02615c0.20288,0,0.40616,0,0.60901,0
				c0.01337,0.01254,0.02631,0.02475,0.03998,0.03757c0.07095,0,0.14252,0,0.21216,0
				c0.0145,0.01312,0.02753,0.02496,0.04147,0.03757c0.1311,0,0.26221,0,0.39145,0c0.01028,0.01044,0.01874,0.01904,0.03354,0.03409
				c0.15332,0,0.31317,0,0.46216,0c0.02319,0.01834,0.03662,0.02896,0.05191,0.04105c0.07092,0,0.14169,0,0.20819,0
				c0.01242,0.01266,0.02087,0.02124,0.02951,0.03003c0.09955,0.00903,0.20029-0.00623,0.29449,0.00751
				c0.01358,0.01379,0.02203,0.02237,0.03067,0.03116c0.13135,0,0.26288,0,0.39386,0
				c0.01331,0.0126,0.02621,0.02487,0.03961,0.03757c0.1073,0,0.21472,0,0.31989,0c0.01477,0.01328,0.02786,0.02499,0.0419,0.0376
				c0.0354,0,0.07074,0,0.10406,0c0.01044,0.01059,0.01892,0.0192,0.03372,0.03424c0.1174,0,0.24139,0,0.35886,0
				c0.0148,0.01501,0.02325,0.02362,0.03806,0.03867c0.05768,0,0.12201,0,0.17944,0c0.0148,0.01505,0.02325,0.02362,0.03171,0.03223
				c0.07584,0.00726,0.15268-0.00369,0.22031,0.00507c0.01614,0.01642,0.0246,0.02502,0.03305,0.0336
				c0.08374,0.00003,0.16748,0.00003,0.25055,0.00003c0.01328,0.01257,0.02618,0.02481,0.03961,0.03757
				c0.07147,0,0.14297,0,0.21335,0c0.00955,0.00967,0.01801,0.01828,0.03281,0.03329c0.05759,0,0.12167,0,0.17941,0
				c0.0148,0.01505,0.02325,0.02365,0.03806,0.0387c0.04575,0,0.09784,0,0.13876,0c0.02362,0.01828,0.03714,0.02872,0.05264,0.04071
				c0.03485,0,0.06952,0,0.09988,0c0.01279,0.013,0.02124,0.02161,0.03064,0.03113c0.05862,0,0.11816,0,0.17764,0
				c0.01343,0.01273,0.02634,0.02496,0.03961,0.03757c0.04724,0,0.09503,0,0.14191,0
				c0.01352,0.0127,0.02646,0.02484,0.04004,0.03757c0.04752,0,0.095,0,0.14127,0c0.0097,0.00986,0.01816,0.01846,0.03296,0.03351
				c0.08145,0,0.16959,0,0.25122,0c0.0148,0.01505,0.02325,0.02362,0.03336,0.03391c0.02646,0.00296,0.05475,0.0061,0.0806,0.00897
				c0.01065,0.01083,0.01913,0.01944,0.02942,0.02991c0.04544,0,0.0928,0,0.14023,0c0.01395,0.0126,0.02698,0.02441,0.04153,0.03757
				c0.03369,0,0.06937,0,0.10446,0c0.01364,0.01282,0.02658,0.02502,0.03992,0.03757c0.04739,0,0.09512,0,0.14163,0
				c0.01382,0.01282,0.02682,0.02487,0.0405,0.03757c0.03549,0,0.07098,0,0.10324,0c0.01575,0.01367,0.02893,0.02509,0.04669,0.0405
				c0.07196-0.04126,0.12521,0.04282,0.19742,0.03323c0.01636-0.00217,0.03635,0.02393,0.05075,0.03421
				c0.03577,0,0.06567,0,0.09744,0c0.01199,0.01099,0.02502,0.02289,0.03925,0.03589c0.02209,0,0.04587,0,0.06906,0
				c0.01358,0.01273,0.02655,0.0249,0.04007,0.03757c0.05914,0,0.1188,0,0.17691,0c0.01413,0.01297,0.02713,0.02493,0.04092,0.03757
				c0.03552,0,0.07092,0,0.10278,0c0.01608,0.01382,0.0293,0.02515,0.04694,0.04028
				c0.07785-0.03693,0.13638,0.04346,0.21225,0.03992c0.00806-0.00037,0.01685,0.01599,0.02826,0.02759
				c0.05646,0,0.11584-0.00021,0.17526,0.00043c0.00467,0.00006,0.00928,0.00616,0.01392,0.00946
				c0.00845,0.00861,0.01691,0.01718,0.02576,0.02618c0.03537,0,0.07117,0,0.10651,0
				c0.0134,0.01257,0.02637,0.02475,0.04004,0.03757c0.0231,0,0.04681,0,0.06866,0c0.01443,0.01309,0.0275,0.02493,0.04141,0.03757
				c0.03546,0,0.07083,0,0.10226,0c0.01645,0.01395,0.02969,0.02518,0.04022,0.03412
				c0.04889,0.00601,0.10071-0.01874,0.1348,0.03217c0.07117-0.00766,0.12372,0.05704,0.18805,0.0452
				c0.01471,0.01495,0.02316,0.02356,0.03183,0.03235c0.03561,0,0.07144,0,0.10678,0
				c0.01328,0.0126,0.02618,0.02484,0.03961,0.03757c0.04745,0,0.09506,0,0.13159,0
				c0.04791,0.02731,0.08685,0.04953,0.12659,0.07217c0.04379,0.00528,0.09134-0.01532,0.13129,0.03027
				c0.02084,0.02377,0.07037-0.01096,0.09549,0.02731c0.0246,0.03741,0.07047-0.00528,0.09705,0.02585
				c0.00845,0.00861,0.01691,0.01718,0.02539,0.02579c0.0239,0.00003,0.04782,0.00003,0.07108,0.00003
				c0.01328,0.01257,0.02618,0.02481,0.03964,0.03757c0.02362,0,0.04724,0,0.06833,0c0.01508,0.01337,0.0282,0.02502,0.0376,0.03336
				c0.04016,0.00232,0.08566-0.00873,0.10822,0.00952c0.0321,0.02603,0.06589,0.01926,0.09598,0.03165
				c0.03683,0.01517,0.06778,0.0401,0.11197,0.03571c0.01233-0.00125,0.02689,0.02042,0.04285,0.0336c0.02036,0,0.04404,0,0.06763,0
				c0.01343,0.01273,0.02634,0.02499,0.03961,0.0376c0.02332,0,0.04718,0,0.07016,0
				c0.01349,0.01266,0.02643,0.02484,0.03821,0.03589c0.03571,0.00323,0.07074-0.00848,0.09918,0.02768
				c0.02228,0.02829,0.06961-0.00891,0.09622,0.02655c0.02142,0.02853,0.06201,0.0217,0.08835,0.04984
				c0.02115,0.02261,0.06586-0.0065,0.09665,0.02628c0.02173,0.02313,0.05801,0.0321,0.09818,0.05273c0.02298,0,0.05878,0,0.09808,0
				c0.01276,0.02975,0.04514,0.02832,0.06885,0.04187c0.02463,0.0141,0.05219,0.02319,0.07394,0.03818
				c0.02557,0.01758,0.04749,0.02762,0.07831,0.03091c0.026,0.00278,0.05026,0.02203,0.07654,0.03458c0.02841,0,0.05832,0,0.08258,0
				c0.0383,0.022,0.07465,0.03842,0.10556,0.0621c0.02298,0.01761,0.04568,0.00555,0.06769,0.01099
				c0.03775,0.00934,0.06494,0.05206,0.11078,0.03632c0.03665,0.0311,0.07996,0.04141,0.12643,0.04193
				c0.02374,0.05063,0.07578,0.01837,0.10983,0.03867c0.03387,0.0202,0.06763,0.04053,0.10825,0.06485
				c0.02686,0,0.06265,0,0.09799,0c0.0134,0.01257,0.02637,0.02475,0.04004,0.03757c0.047,0,0.09467,0,0.1423,0
				c0.02536,0.04663,0.07343,0.02673,0.10922,0.04099c0.04102,0.01633,0.07736,0.0448,0.11526,0.06772
				c0.03055,0,0.06046,0,0.09332,0c0.01126,0.01028,0.02707,0.03415,0.03659,0.0318
				c0.04773-0.01181,0.06305,0.05859,0.11014,0.04114c0.0257,0.04407,0.07974,0.04031,0.11545,0.07098
				c0.02795,0.02399,0.0719,0.02765,0.1062,0.04538c0.03485,0.01801,0.06415,0.0517,0.10031,0.06128
				c0.04456,0.01181,0.08417,0.03354,0.12039,0.05649c0.03345,0.02121,0.07782,0.02213,0.10263,0.05762
				c0.04431-0.0065,0.0564,0.03769,0.08517,0.05536c0.03311,0.02036,0.0687,0.03656,0.10217,0.05402c0.01926,0,0.0372,0,0.04929,0
				c0.02838,0.01651,0.05234,0.03043,0.07629,0.04434c0.00366-0.00476,0.00729-0.00955,0.01093-0.01431
				c0.0217,0.02859,0.0434,0.05719,0.05804,0.07654c0.03671,0.00333,0.06744-0.00345,0.08191,0.00909
				c0.06516,0.05646,0.16556,0.05664,0.20795,0.13995c0.02878,0,0.05261,0,0.06393,0
				c0.11871,0.0621,0.22751,0.11905,0.34668,0.18143c0.02274,0,0.05847,0,0.09964,0
				c0.01791,0.01956,0.03604,0.04449,0.05917,0.06293c0.01675,0.01337,0.0416,0.01569,0.06027,0.02716
				c0.06723,0.04135,0.14941,0.05893,0.19891,0.12848c0.05328-0.00534,0.08777,0.06232,0.14297,0.03961
				c0.03922,0.02615,0.06421,0.06329,0.11328,0.08075c0.04495,0.01599,0.09189,0.03995,0.13434,0.06503
				c0.04834,0.02856,0.10001,0.05283,0.14206,0.09592c0.02872,0.02942,0.08057,0.0343,0.11984,0.05463
				c0.03482,0.01804,0.07404,0.03598,0.09784,0.06528c0.03189,0.03925,0.08655,0.0325,0.11594,0.07275
				c0.008,0.01096,0.03375,0.00693,0.04587,0.01675c0.03113,0.02521,0.05273,0.06461,0.09995,0.06366
				c0.01736,0.03717,0.06699,0.0191,0.08646,0.05167c0.02295,0.03839,0.06387,0.04669,0.0994,0.06458
				c0.04968,0.02499,0.10431,0.04431,0.14655,0.07898c0.04959,0.04071,0.1012,0.06992,0.16061,0.09219
				c0.03064,0.01147,0.05063,0.06296,0.07925,0.06677c0.04282,0.00574,0.06287,0.05603,0.10812,0.04547
				c0.02539,0.02579,0.05307,0.04968,0.07553,0.07785c0.02673,0.0336,0.07745,0.02304,0.10107,0.06329
				c0.01083,0.01846,0.0314,0.02951,0.05518,0.03879c0.03586,0.01395,0.06198,0.0585,0.09763,0.06711
				c0.04739,0.01147,0.06055,0.06696,0.09592,0.07178c0.04922,0.00677,0.07333,0.03885,0.09735,0.06918
				c0.02774,0.03503,0.07156,0.03604,0.10059,0.06351c0.03064,0.02896,0.05945,0.05991,0.08905,0.09
				c0.06836-0.01184,0.08023,0.08783,0.14789,0.07733c0.04651,0.04727,0.09305,0.09457,0.13956,0.14185
				c0.00598,0,0.01215-0.00095,0.01791,0.00015c0.06729,0.0127,0.07953,0.10501,0.1528,0.10925
				c0.06067,0.05743,0.12131,0.11487,0.18622,0.17633c0.0148,0.00522,0.03564,0.01251,0.05182,0.01822
				c0.00455,0.02258,0.0079,0.03918,0.01074,0.05338c0.02155,0.00574,0.03775,0.01004,0.04398,0.01169
				c0.08759,0.06439,0.13535,0.16223,0.23615,0.19601c0.06345,0.06448,0.12689,0.12894,0.19031,0.19342
				c0.02081,0.0072,0.04163,0.01443,0.05728,0.01984c0.00473,0.02313,0.00815,0.03976,0.01096,0.0535
				c0.02597,0.00833,0.04639,0.01489,0.06409,0.02057c0.00131,0.01981,0.00211,0.03165,0.0032,0.04807
				c0.0144,0.00439,0.0303,0.00925,0.05734,0.01749c0.02109,0.02142,0.06586,0.04642,0.07663,0.08203
				c0.02475,0.082,0.08734,0.11533,0.15045,0.15268c0.00092,0.01178,0.0018,0.02353,0.00122,0.01602
				c0.06464,0.0657,0.11905,0.12103,0.17749,0.18045c0.0079,0.00336,0.02298,0.00977,0.03708,0.01575c0,0.01599,0,0.02802,0,0.04453
				c0.07056,0.07016,0.1431,0.1423,0.21548,0.21432c0,0.01288,0,0.02487,0,0.04153c0.07053,0.0701,0.14307,0.14218,0.21451,0.21313
				c0.00064,0.01398,0.00119,0.02588,0.00174,0.03772c0.0466,0.04736,0.09537,0.09262,0.13901,0.14249
				c0.04169,0.04764,0.10663,0.078,0.11484,0.15192c0.0466,0.04715,0.0932,0.0943,0.13943,0.14105c0,0.013,0,0.02512,0,0.03714
				c0.05933,0.06027,0.11853,0.12042,0.17786,0.18069c0.00049,0.01184,0.00104,0.02374,0.00153,0.03568
				c0.02515,0.03796,0.07935,0.0564,0.07446,0.1145c0.03387,0.03439,0.06769,0.06879,0.1015,0.10315
				c-0.01447,0.04712,0.05408,0.06387,0.03925,0.11121c0.04474,0.05301,0.10358,0.09351,0.12738,0.16522
				c0.01025,0.03091,0.04633,0.04532,0.05627,0.0863c0.00861,0.03549,0.05316,0.06192,0.08154,0.09265
				c0.00787,0.00851,0.02155,0.01865,0.02081,0.02707c-0.00439,0.05344,0.05731,0.06372,0.06531,0.10016
				c0.01154,0.05246,0.04913,0.07828,0.07886,0.11322c-0.01941,0.04849,0.05658,0.06342,0.03809,0.1116
				c0.0531,0.03952,0.07605,0.10089,0.10486,0.15656c0.0307,0.05957,0.06348,0.11868,0.08441,0.1824
				c0.01721,0.00458,0.03345,0.00888,0.04401,0.01169c0.04956,0.09869,0.09735,0.19394,0.1452,0.28918
				c0.01257,0.02509,0.01965,0.05685,0.03918,0.07373c0.04144,0.03583,0.04547,0.0936,0.08307,0.13004
				c-0.00995,0.06339,0.08221,0.07025,0.07178,0.13391c0.07129,0.1084,0.11084,0.23395,0.17944,0.34381
				c-0.00708,0.0618,0.08588,0.06821,0.07178,0.13388c0.03986,0.02173,0.03522,0.07043,0.06012,0.10309
				c0.02618,0.03421,0.02905,0.08655,0.05457,0.12158c0.03381,0.04654,0.04175,0.11252,0.09717,0.13568
				c0.01105,0.03317-0.00635,0.06281,0.0144,0.09167c0.03271,0.04553,0.05463,0.09872,0.07513,0.15042
				c0.01855,0.04688,0.05188,0.08496,0.06079,0.13937c0.00867,0.05325,0.0434,0.10257,0.06866,0.15253
				c0.04346,0.08575,0.07129,0.18088,0.1474,0.24515c0,0.03986,0,0.07516,0,0.10626c0.02527,0.0257,0.04645,0.04718,0.06763,0.06866
				c0,0.02429,0,0.04858,0,0.07349c0.00824,0.00824,0.01984,0.01523,0.02478,0.02551
				c0.01691,0.03531,0.04218,0.07117,0.04419,0.10794c0.00214,0.03958,0.03174,0.06348,0.03607,0.09451
				c0.00574,0.0416,0.0473,0.0632,0.04224,0.11252c-0.00354,0.034,0.01849,0.08249,0.04504,0.10507
				c0.04047,0.03433,0.00171,0.08664,0.03662,0.11331c0.03064,0.02344,0.01727,0.06613,0.04895,0.09042
				c0.02838,0.02173-0.00861,0.0705,0.02631,0.0975c0.02808,0.02176,0.01581,0.06845,0.05035,0.08887
				c0.00586,0.00348,0.0069,0.02328,0.00372,0.03351c-0.01306,0.04239,0.04156,0.06128,0.03467,0.09412
				c-0.01025,0.04877,0.02936,0.07401,0.03882,0.11267c0.00653,0.0267,0.0329,0.05112,0.03253,0.07626
				c-0.00067,0.03992,0.01587,0.06699,0.03815,0.09433c-0.01495,0.06174,0.04669,0.10522,0.03821,0.16754
				c-0.00226,0.01651,0.02344,0.03696,0.03357,0.05164c0,0.03629,0,0.06665,0,0.09897
				c0.0108,0.01218,0.02246,0.02542,0.03534,0.03992c0,0.0224,0,0.04654,0,0.07007c0.01251,0.01382,0.02448,0.02701,0.03693,0.04074
				c0,0.02365,0,0.04782,0,0.07043c0.01276,0.01431,0.02454,0.02753,0.03406,0.03824
				c0.00684,0.03143-0.0119,0.06494,0.01733,0.08762c0.02942,0.02271,0.01306,0.05563,0.021,0.08258
				c0.00946,0.03201,0.04034,0.05325,0.03729,0.09482c-0.00177,0.02438,0.02118,0.05066,0.03339,0.07684
				c0,0.02942,0,0.05981,0,0.09189c0.01099,0.0123,0.02277,0.02548,0.03546,0.03967c0,0.0228,0,0.04697,0,0.07071
				c0.01239,0.01364,0.02435,0.02682,0.03699,0.04071c0,0.02347,0,0.04758,0,0.07101
				c0.00916,0.00928,0.02106,0.01639,0.02545,0.02673c0.01733,0.04135,0,0.09558,0.04565,0.12665
				c-0.02844,0.07523,0.04535,0.13138,0.0376,0.20389c-0.00134,0.01257,0.01959,0.02762,0.03284,0.04492
				c0,0.03168,0,0.06778,0,0.10388c0.01251,0.01382,0.02441,0.02698,0.03699,0.04086c0,0.02316,0,0.04739,0,0.07117
				c0.01239,0.01352,0.02441,0.02664,0.03699,0.04031c0,0.04816,0,0.09653,0,0.1337
				c0.02679,0.04852,0.04865,0.08817,0.07385,0.13379c-0.0304,0.0863,0.03375,0.16238,0.04218,0.2486
				c0.00092,0.00937,0.01593,0.0173,0.0307,0.03232c0,0.04663,0,0.09967,0,0.1459c0.01483,0.01505,0.02325,0.02362,0.03174,0.03223
				c0.00006,0.02429,0.00006,0.04858,0.00006,0.07224c0.01239,0.01349,0.02441,0.02661,0.03693,0.04025
				c0,0.06049,0,0.12097,0,0.18039c0.00952,0.00964,0.01794,0.01825,0.03278,0.03329c0,0.0585,0,0.12363,0,0.18234
				c0.01477,0.01501,0.02325,0.02362,0.03809,0.03867c0,0.05847,0,0.12384,0,0.17749
				c0.01801,0.02399,0.02826,0.03769,0.0401,0.05341c0,0.03543,0,0.07068,0,0.10159
				c0.01276,0.01294,0.02118,0.02155,0.03064,0.03113c0,0.05951,0,0.12003,0,0.18048
				c0.01251,0.01364,0.02454,0.02676,0.03693,0.04025c0,0.04797,0,0.09656,0,0.14426
				c0.01251,0.01367,0.02448,0.02682,0.03699,0.04059c0,0.03616,0,0.07227,0,0.10715
				c0.00964,0.00983,0.01813,0.01843,0.03296,0.03348c0,0.0585,0,0.12363,0,0.18231
				c0.01477,0.01505,0.02325,0.02362,0.03802,0.03867c0,0.03433,0,0.0751,0,0.10944
				c0.01483,0.01501,0.02325,0.02362,0.03809,0.03867c0,0.05869,0,0.12384,0,0.18234
				c0.01477,0.01501,0.02325,0.02362,0.03326,0.03384c0,0.10754-0.00012,0.21671,0.00049,0.3259
				c0,0.00455,0.00696,0.00903,0.01599,0.02011c0.00262,0.00241,0.01141,0.01053,0.01971,0.01813c0,0.07419,0,0.14703,0,0.21872
				c0.01257,0.01395,0.02448,0.02713,0.03699,0.04102c0,0.07254,0,0.14511,0,0.21622
				c0.00983,0.01001,0.01831,0.01862,0.03308,0.03363c0,0.08279,0,0.17236,0,0.25528
				c0.01477,0.01505,0.02325,0.02365,0.03809,0.0387c0,0.08286,0,0.17245,0,0.25525
				c0.01477,0.01505,0.02325,0.02362,0.03168,0.03223c0.00116,0.00558,0.0033,0.0112,0.0033,0.01678
				c0.00018,0.09119,0,0.18234,0.00049,0.2735c0.00006,0.00479,0.0058,0.00955,0.00891,0.01434
				c0.00848,0.00858,0.01691,0.01718,0.02661,0.02704c0,0.09579-0.00018,0.19287,0.00049,0.28995
				c0,0.00449,0.00714,0.00894,0.01099,0.0134c0.00818,0.0087,0.0163,0.01743,0.0249,0.02661c0,0.14532,0,0.29105,0,0.43527
				c0.0127,0.01428,0.02448,0.0275,0.03693,0.04147c0,0.1333,0,0.26657,0,0.39825c0.01001,0.01016,0.01849,0.01877,0.03326,0.03378
				c0,0.4476,0,0.90167,0,1.35315c0.01654,0.0069,0.02673,0.01117,0.03699,0.01547c0,0.02429,0,0.04861,0,0.07291
				c-0.03412-0.00266-0.03711,0.02109-0.03552,0.04575c0.00165,0.02634-0.01245,0.06342,0.03552,0.06366
				c0,0.04861,0,0.09726,0,0.14587c-0.01031,0.00433-0.02057,0.0087-0.03717,0.01572c0,0.35419,0,0.71103,0,1.06134
				c-0.01483,0.01505-0.02325,0.02365-0.03461,0.03519c0,0.11816,0.00012,0.23932-0.00043,0.36047
				c0,0.00473-0.0061,0.00943-0.00934,0.01413c-0.00848,0.00861-0.01697,0.01718-0.02576,0.02615c0,0.12106,0,0.24252,0,0.36359
				c-0.01239,0.01358-0.02435,0.02673-0.03699,0.04062c0,0.16934,0,0.33929,0,0.50732
				c-0.01288,0.01471-0.02454,0.02795-0.03699,0.04211c0,0.12109,0,0.24216,0,0.36133
				c-0.01025,0.01044-0.01868,0.01904-0.03351,0.03406c0,0.16797,0,0.34256,0,0.50613
				c-0.01801,0.02353-0.0285,0.0372-0.04041,0.05273c0,0.12064,0,0.24115,0,0.35742
				c-0.01245,0.01263-0.02087,0.02121-0.03192,0.03241c0,0.09427,0.00012,0.19116-0.00043,0.28806
				c0,0.00467-0.00629,0.00931-0.0097,0.01398c-0.00842,0.00861-0.01691,0.01718-0.02557,0.026c0,0.13342,0,0.26709,0,0.40021
				c-0.01239,0.01349-0.02441,0.02661-0.03693,0.04028c0,0.09683,0,0.19382,0,0.28854
				c-0.01306,0.01501-0.0246,0.02832-0.03699,0.04257c0,0.13321,0,0.26639,0,0.39749
				c-0.01044,0.01059-0.01892,0.0192-0.03369,0.03424c0,0.08282,0,0.17242,0,0.25525
				c-0.01483,0.01505-0.02325,0.02365-0.03394,0.03448c0,0.08218,0,0.16669,0,0.25119
				c-0.01233,0.01443-0.02374,0.02777-0.03595,0.04202c-0.00171,0.02725-0.00348,0.05603-0.0047,0.07632
				c-0.01636,0.01657-0.02478,0.02518-0.03326,0.03378c0,0.04861,0,0.09723,0,0.14517
				c-0.01239,0.01349-0.02441,0.02661-0.03699,0.04025c0,0.06049,0,0.12097,0,0.17883
				c-0.01318,0.01535-0.0246,0.02866-0.03699,0.04306c0,0.03595,0,0.07178,0,0.10544
				c-0.01056,0.01077-0.01904,0.01938-0.03381,0.03439c0,0.04648,0,0.09943,0,0.14587
				c-0.01483,0.01505-0.02332,0.02362-0.03809,0.03867c0,0.04648,0,0.09952,0,0.14587
				c-0.01483,0.01505-0.02325,0.02365-0.03809,0.03867c0,0.05878,0,0.12402,0,0.1835
				c-0.01453,0.01407-0.02319,0.02243-0.03156,0.03049c0,0.06146,0,0.12219,0,0.18198
				c-0.01245,0.01373-0.02441,0.02689-0.03699,0.04065c0,0.03616,0,0.07227,0,0.10709
				c-0.0097,0.00986-0.01813,0.01846-0.0329,0.03351c0,0.04614,0,0.09927,0,0.14587
				c-0.01483,0.01505-0.02325,0.02365-0.03339,0.03394c-0.00293,0.02686-0.00604,0.0556-0.00885,0.08188
				c-0.01068,0.01083-0.0191,0.01941-0.03394,0.03445c0,0.04651,0,0.09964,0,0.14587
				c-0.01477,0.01505-0.02325,0.02365-0.03247,0.03299c0,0.03549,0,0.07175,0,0.10745
				c-0.01263,0.01385-0.0246,0.02701-0.03693,0.04053c0,0.02383,0,0.04807,0,0.07101
				c-0.01263,0.01404-0.02454,0.02722-0.03699,0.04111c0,0.06042,0,0.12079,0,0.17789
				c-0.01343,0.01599-0.02472,0.02939-0.03448,0.04102c0,0.03342,0.00171,0.06393-0.00049,0.09418
				c-0.00214,0.02921-0.04224,0.03967-0.03632,0.07623c0.00464,0.02863,0.00092,0.05865,0.00092,0.07507
				c-0.01874,0.0256-0.02887,0.0394-0.0351,0.04794c-0.00433,0.04269,0.00757,0.07922-0.01013,0.11307
				c-0.00848,0.00858-0.01691,0.01718-0.02594,0.02637c0,0.03571,0,0.07202,0,0.1077
				c-0.01257,0.01382-0.02454,0.02701-0.03699,0.04074c0,0.0358,0,0.07211,0,0.0993
				c-0.02405,0.04135-0.04565,0.07486-0.06317,0.11047c-0.0072,0.01477-0.00946,0.03452-0.00739,0.05112
				c0.00568,0.04431-0.04626,0.0632-0.04028,0.11307c0.00403,0.03375-0.02606,0.07214-0.04224,0.10785
				c-0.00696,0.01538-0.02252,0.02847-0.02472,0.04398c-0.00409,0.0289-0.00024,0.05539-0.0238,0.08237
				c-0.02081,0.02383-0.02228,0.064-0.0509,0.08899c0,0.03482,0,0.07077,0,0.10272
				c-0.04309,0.04492-0.04865,0.11267-0.10455,0.14041c0,0.03931,0,0.07541,0,0.10614
				c-0.01416,0.02408-0.03369,0.043-0.03528,0.06335c-0.00232,0.0296-0.03064,0.03619-0.03711,0.05786
				c-0.00824,0.0274,0.00446,0.05563-0.01355,0.08588c-0.04291,0.07214-0.07422,0.15146-0.11743,0.22342
				c-0.01819,0.03027-0.0072,0.0578-0.01471,0.08884c-0.02222,0.02371-0.04657,0.04971-0.07031,0.0751
				c0,0.01938,0.00732,0.043-0.00116,0.05499c-0.06299,0.08887-0.07074,0.20151-0.12646,0.29385
				c-0.02863,0.04752-0.06641,0.09631-0.04822,0.17761c-0.02197,0.01486-0.05188,0.03506-0.0777,0.05249
				c0,0.03299,0,0.05664,0,0.07791c-0.01923,0.01956-0.03827,0.03516-0.05231,0.0545c-0.0094,0.013-0.00702,0.03735-0.01801,0.04611
				c-0.03412,0.02725-0.03094,0.07294-0.05719,0.10504c-0.02386,0.02914-0.04901,0.07169-0.0459,0.10568
				c0.00446,0.04901-0.04205,0.07065-0.03961,0.11288c-0.05115,0.07498-0.0672,0.17245-0.14404,0.22971
				c0,0.02576,0,0.04993,0,0.07352c-0.0304,0.03543-0.07562,0.05963-0.0766,0.11441
				c-0.0293,0.01636-0.02106,0.05661-0.03949,0.07352c-0.04004,0.03662-0.05341,0.09167-0.08936,0.12625
				c-0.03558,0.03427-0.04077,0.08234-0.073,0.117c-0.03473,0.03735-0.06006,0.08362-0.09009,0.12555
				s-0.04242,0.09653-0.08856,0.12704c-0.00421,0.00281-0.008,0.00919-0.00861,0.01431
				c-0.00537,0.04703-0.04443,0.07834-0.05499,0.1228c-0.05231,0.02582-0.04523,0.09631-0.08942,0.12582
				c-0.04254,0.02841-0.02979,0.091-0.07556,0.11462c-0.03571,0.01846-0.02533,0.06293-0.05005,0.08878
				c-0.02332,0.02438-0.0517,0.04218-0.05713,0.08612c-0.00354,0.02899-0.04401,0.05328-0.06793,0.07968
				c0.00781,0.05887-0.065,0.06946-0.07007,0.11584c-0.00549,0.05066-0.04352,0.0722-0.07343,0.09595
				c-0.03979,0.03162-0.03198,0.08704-0.07355,0.11731c-0.03625,0.02649-0.06238,0.06345-0.08124,0.1106
				c-0.01569,0.03918-0.05328,0.07162-0.07452,0.11423c-0.01794,0.03607-0.05383,0.06546-0.08716,0.09042
				c-0.04004,0.03003-0.03784,0.08441-0.07483,0.11554c-0.0321,0.02698-0.06335,0.05673-0.08838,0.09033
				c-0.0271,0.03641-0.03723,0.0834-0.07587,0.11465c-0.01978,0.01599-0.02295,0.05154-0.04016,0.07288
				c-0.02637,0.03275-0.05835,0.06085-0.08795,0.09094c-0.02539,0.02579-0.05334,0.04947-0.07544,0.07791
				c-0.02417,0.03119-0.03949,0.06973-0.06476,0.09979c-0.06784,0.08078-0.15228,0.14459-0.20554,0.24152
				c-0.03366,0.06125-0.09363,0.11121-0.1503,0.15485c-0.06332,0.04874-0.08212,0.12668-0.13708,0.18127
				c-0.25656,0.25491-0.50934,0.51379-0.76178,0.77295c-0.0329,0.03378-0.06876,0.05896-0.10712,0.07584
				c-0.0051,0.01877-0.00952,0.03506-0.01318,0.04849c-0.02155,0.00482-0.03787,0.00845-0.0527,0.01178
				c-0.00821,0.02396-0.01544,0.0451-0.02243,0.06549c-0.01575,0-0.02759,0-0.04337,0
				c-0.03574,0.03732-0.07297,0.07666-0.11069,0.11551c-0.03778,0.03894-0.08179,0.07327-0.11258,0.11722
				c-0.03299,0.04715-0.08841,0.05267-0.12695,0.08832c-0.07724,0.07141-0.1362,0.16217-0.23685,0.20996
				c-0.04584,0.02176-0.08218,0.07086-0.1142,0.11417c-0.03357,0.04538-0.09183,0.04568-0.12726,0.08817
				c-0.05005,0.06009-0.1087,0.11282-0.1637,0.16867c-0.08664,0.01047-0.11197,0.11847-0.19864,0.12894
				c-0.0423,0.04297-0.08575,0.08481-0.12656,0.12921c-0.04373,0.04764-0.10999,0.06223-0.15176,0.11462
				c-0.02792,0.03503-0.05872,0.06696-0.10931,0.08286c-0.04041,0.01273-0.069,0.06439-0.10281,0.09875
				c-0.05737-0.00525-0.07257,0.06448-0.11334,0.07236c-0.06152,0.0119-0.08264,0.0639-0.12283,0.09595
				c-0.02707,0.02158-0.06549,0.01736-0.08832,0.05005c-0.02023,0.02899-0.04785,0.06808-0.07635,0.07211
				c-0.04297,0.00607-0.06073,0.03452-0.08463,0.05829c-0.02927,0.02905-0.05951,0.05075-0.09891,0.06653
				c-0.03061,0.01224-0.05353,0.04733-0.07675,0.07501c-0.03079,0.03665-0.06787,0.06174-0.11237,0.07721
				c-0.02087,0.00726-0.04355,0.01337-0.0607,0.02643c-0.02368,0.01801-0.04163,0.04364-0.06436,0.06323
				c-0.03448,0.02972-0.05417,0.08212-0.11172,0.0777c-0.04922,0.06848-0.14087,0.08322-0.189,0.15411
				c-0.00851,0.01251-0.02753,0.02216-0.04297,0.02448c-0.04626,0.00699-0.05545,0.07095-0.09576,0.07144
				c-0.05838,0.0007-0.06396,0.07132-0.11383,0.07501c-0.04883,0.00363-0.06259,0.05106-0.09512,0.07486
				c-0.01831,0.01337-0.03244,0.02887-0.05664,0.03769c-0.0307,0.01117-0.05151,0.0556-0.08154,0.06216
				c-0.04529,0.00989-0.06802,0.04175-0.09906,0.06705c-0.02606,0.02124-0.06342,0.01959-0.08762,0.05096
				c-0.02777,0.03604-0.05719,0.07678-0.11066,0.07843c-0.03235,0.04321-0.07825,0.06732-0.12479,0.09006
				c-0.0358,0.01746-0.07425,0.02792-0.10022,0.0639c-0.01675,0.02325-0.04099,0.04294-0.06555,0.05792
				c-0.04276,0.02606-0.1008,0.02777-0.13104,0.07251c-0.02875,0.04254-0.08615,0.03235-0.11404,0.07596
				c-0.02878,0.04501-0.09262,0.04187-0.12579,0.08942c-0.02136,0.03064-0.06982,0.03162-0.09885,0.06448
				c-0.02924,0.03314-0.07846,0.04034-0.11685,0.06302c-0.00958,0.00568-0.02444,0.008-0.02866,0.0162
				c-0.02695,0.05231-0.09241,0.04764-0.12549,0.08981c-0.06345-0.00977-0.07462,0.0733-0.13037,0.07614
				c-0.052,0.00266-0.05698,0.07932-0.1138,0.07318c-0.05591,0.05948-0.13947,0.08142-0.1922,0.14655c-0.02328,0-0.04703,0-0.0701,0
				c-0.01758,0.01785-0.03448,0.03503-0.05142,0.05225c-0.01691,0.01718-0.03104,0.04172-0.05142,0.04974
				c-0.02676,0.01056-0.05319,0.01599-0.07413,0.03973c-0.01456,0.01651-0.02774,0.03391-0.05447,0.0416
				c-0.1033,0.02969-0.17142,0.12769-0.27832,0.15338c-0.00992,0.00238-0.01617,0.01767-0.02576,0.02466
				c-0.01834,0.0134-0.0264,0.03711-0.05554,0.04092c-0.02606,0.00339-0.05029,0.02216-0.07504,0.0347
				c-0.03473,0.01761-0.08008,0.02725-0.10129,0.05551c-0.03458,0.04602-0.09409,0.04617-0.12717,0.08832
				c-0.06436-0.01239-0.07349,0.07489-0.13098,0.07489c-0.06531,0.0549-0.14053,0.09302-0.21567,0.1312
				c-0.01971,0.01001-0.04419,0.01321-0.06033,0.02701c-0.02234,0.01907-0.03885,0.0452-0.05267,0.06201
				c-0.03629,0-0.05981,0-0.07712,0c-0.03134,0.02628-0.05612,0.0527-0.08591,0.0705
				c-0.03305,0.01978-0.07187,0.02933-0.10593,0.04767c-0.03018,0.01624-0.0419,0.05472-0.08173,0.06454
				c-0.03674,0.00906-0.07391,0.02817-0.10342,0.05228c-0.02737,0.0224-0.07016,0.01343-0.0878,0.05008
				c-0.04532-0.01059-0.06378,0.05096-0.10861,0.04172c-0.02264,0.03885-0.07132,0.03113-0.10202,0.05981
				c-0.02325,0.02176-0.06384,0.02115-0.08664,0.04959c-0.04355-0.0087-0.0751,0.01617-0.11163,0.03461
				c-0.04947,0.02496-0.09717,0.05746-0.14954,0.07199c-0.03369,0.00934-0.05042,0.05545-0.09204,0.03925
				c-0.04187-0.01636-0.05557,0.03784-0.0928,0.03735c-0.03461-0.00049-0.0502,0.04459-0.09134,0.04236
				c-0.01556-0.00082-0.0311,0.02759-0.0582,0.03107c-0.08554,0.01105-0.1514,0.0683-0.2403,0.108c-0.00836,0-0.03226,0-0.05554,0
				c-0.01328,0.01257-0.02618,0.02481-0.03961,0.03757c-0.02362,0-0.04727,0-0.06839,0
				c-0.01505,0.01337-0.02814,0.02502-0.03986,0.0354c-0.03238,0-0.06277-0.00327-0.09198,0.00134
				c-0.01505,0.00238-0.02829,0.02783-0.04172,0.02725c-0.07602-0.00327-0.13531,0.07483-0.21344,0.0401
				c-0.01654,0.01474-0.02963,0.02643-0.04449,0.03973c-0.02133,0-0.04498,0-0.0686,0
				c-0.0134,0.01273-0.02631,0.02496-0.03961,0.03757c-0.03525,0-0.07111,0-0.10605,0
				c-0.01349,0.0127-0.02643,0.02484-0.03998,0.03757c-0.04752,0-0.09503,0-0.13968,0
				c-0.01538,0.01352-0.02853,0.02505-0.04279,0.03757c-0.03528,0-0.07053,0-0.10077,0
				c-0.01749,0.01437-0.03085,0.02533-0.04578,0.0376c-0.04706,0-0.09399,0-0.13745,0
				c-0.01184,0.01202-0.02029,0.02063-0.03513,0.03568c-0.06967,0-0.1459,0-0.21527,0
				c-0.01483,0.01505-0.02328,0.02362-0.03329,0.03381c-0.08197,0-0.1655-0.00018-0.24899,0.00046
				c-0.00449,0.00003-0.00891,0.00708-0.02002,0.01651c-0.00217,0.00241-0.0101,0.01141-0.01755,0.01981
				c-0.06113,0-0.12085,0-0.17938,0c-0.01379,0.01279-0.02676,0.02484-0.04041,0.03757c-0.07141,0-0.14279,0-0.21277,0
				c-0.00986,0.01001-0.01831,0.01859-0.03311,0.03363c-0.20117,0-0.40884,0-0.61008,0
				c-0.0148,0.01505-0.02325,0.02365-0.03369,0.03427c-0.02615,0-0.05432,0-0.07892,0
				c-0.01202-0.01224-0.02048-0.02081-0.03064-0.03113c-0.17725,0-0.3562,0-0.53894,0
				c-0.0101,0.00922-0.02313,0.02109-0.03741,0.03412c-0.034,0-0.0697,0-0.10614,0c-0.0123-0.01154-0.02527-0.02368-0.03775-0.03537
				c-0.01233,0-0.02417,0-0.03448,0c-0.01407,0.01294-0.02707,0.0249-0.04083,0.03757c-0.6575,0-1.31497,0-1.97092,0
				c-0.01001,0.01016-0.01846,0.01877-0.03326,0.03378c-0.33276,0-0.672,0-1.00861,0
				C495.40912,398.60114,495.40491,398.61151,495.4007,398.62189z M468.15781,383.80353
				c-0.00415-0.00766-0.00845-0.01556-0.01276-0.0235c-0.004,0.00406-0.0119,0.009-0.01123,0.01199
				c0.00189,0.00858,0.00723,0.01639,0.01123,0.02448C468.14902,383.81244,468.15302,383.80841,468.15781,383.80353z
				 M469.95212,388.60657c-0.00479-0.00485-0.00879-0.00891-0.01276-0.01297c-0.004,0.00812-0.00934,0.0159-0.01123,0.02448
				c-0.00064,0.00302,0.00723,0.00797,0.01123,0.01199C469.94366,388.62216,469.94797,388.61423,469.95212,388.60657z
				 M470.59048,389.87518c-0.00751,0.00424-0.01532,0.00861-0.0231,0.013c0.00397,0.00403,0.00882,0.01205,0.01178,0.01138
				c0.00845-0.00189,0.01611-0.00735,0.02408-0.01138C470.59927,389.88412,470.59528,389.88007,470.59048,389.87518z
				 M470.7775,390.17465c-0.00479-0.00488-0.00876-0.00894-0.01276-0.01297c-0.004,0.00809-0.00934,0.01587-0.01123,0.02448
				c-0.00064,0.00299,0.00723,0.00793,0.01123,0.01196C470.76904,390.19022,470.77335,390.18228,470.7775,390.17465z
				 M471.03906,390.61224c0.00415,0.00763,0.00845,0.01556,0.01276,0.0235c0.004-0.00406,0.0119-0.009,0.01123-0.01199
				c-0.00189-0.00858-0.00723-0.01639-0.01123-0.02448C471.04785,390.60333,471.04385,390.60736,471.03906,390.61224z
				 M472.14117,392.19083c-0.00415-0.00766-0.00845-0.01556-0.01276-0.0235c-0.004,0.00406-0.01187,0.009-0.01123,0.01199
				c0.00189,0.00858,0.00723,0.01636,0.01123,0.02448C472.13242,392.19974,472.13638,392.19568,472.14117,392.19083z
				 M472.89481,393.01901c-0.00479-0.00485-0.00879-0.00891-0.01276-0.01297c-0.004,0.00812-0.00937,0.0159-0.01123,0.02448
				c-0.00067,0.00302,0.00723,0.00797,0.01123,0.01199C472.88635,393.03461,472.89066,393.02667,472.89481,393.01901z"/>
		</g>
	</g>
</g>
</svg>
